<?xml version="1.0" standalone="no"?>
<!DOCTYPE svg PUBLIC "-//W3C//DTD SVG 20010904//EN"
 "http://www.w3.org/TR/2001/REC-SVG-20010904/DTD/svg10.dtd">
<svg version="1.0" xmlns="http://www.w3.org/2000/svg"
 width="439.000000pt" height="439.000000pt" viewBox="0 0 439.000000 439.000000"
 preserveAspectRatio="xMidYMid meet">
<metadata>
Created by potrace 1.14, written by Peter Selinger 2001-2017
</metadata>
<g transform="translate(0.000000,439.000000) scale(0.100000,-0.100000)"
fill="#000000" stroke="none">
<path d="M2161 4372 c-10 -18 -9 -99 4 -672 4 -162 8 -330 9 -372 2 -82 6 -94
30 -85 10 4 14 19 14 44 -1 21 2 205 7 408 13 600 13 669 2 683 -14 18 -55 15
-66 -6z"/>
<path d="M1796 4344 c-19 -18 -19 -25 -5 -95 6 -30 12 -65 15 -79 3 -14 14
-70 25 -125 11 -55 22 -113 24 -130 3 -16 10 -50 15 -75 5 -25 12 -56 14 -70
7 -42 96 -500 112 -579 18 -88 21 -96 40 -80 9 8 13 22 9 38 -2 14 -7 44 -10
66 -3 22 -10 63 -15 90 -6 28 -12 67 -15 89 -8 64 -15 118 -25 176 -5 30 -12
73 -16 95 -3 22 -12 83 -21 135 -8 52 -16 104 -18 115 -37 273 -65 420 -82
433 -22 16 -28 15 -47 -4z"/>
<path d="M2541 4341 c-13 -8 -38 -147 -76 -416 -2 -11 -13 -81 -24 -155 -12
-74 -28 -175 -36 -225 -7 -49 -23 -151 -35 -225 -26 -170 -28 -212 -13 -217
15 -5 28 25 36 82 6 35 27 148 41 210 2 11 23 117 46 235 23 118 43 220 44
225 4 15 18 88 22 110 2 11 18 94 35 184 33 171 33 193 -7 199 -10 1 -25 -2
-33 -7z"/>
<path d="M1432 4248 c-7 -7 -12 -20 -12 -30 0 -16 72 -220 100 -283 5 -11 31
-78 59 -150 27 -71 84 -220 126 -330 42 -110 97 -254 122 -320 53 -137 60
-150 78 -135 14 12 19 -2 -220 695 -69 204 -138 404 -151 445 -14 41 -32 85
-40 98 -16 24 -43 29 -62 10z"/>
<path d="M2903 4252 c-17 -11 -435 -1230 -427 -1244 11 -17 35 -7 45 20 22 60
201 528 210 547 5 11 56 144 114 295 58 151 112 291 120 311 12 32 12 39 -1
58 -15 22 -39 27 -61 13z"/>
<path d="M3252 4092 c-18 -15 -77 -117 -232 -397 -18 -33 -52 -94 -75 -135
-23 -41 -57 -102 -75 -135 -18 -33 -41 -73 -50 -90 -201 -359 -231 -418 -221
-428 8 -8 15 -7 25 3 8 8 131 209 273 445 143 237 296 490 340 563 82 136 90
162 53 182 -13 7 -24 5 -38 -8z"/>
<path d="M1084 4075 c-3 -13 -4 -28 -2 -33 17 -43 686 -1142 694 -1142 29 0
13 39 -96 235 -170 307 -266 480 -317 575 -190 350 -216 390 -244 390 -22 0
-30 -6 -35 -25z"/>
<path d="M788 3879 c-10 -5 -18 -20 -18 -33 0 -12 8 -31 18 -42 9 -10 44 -50
77 -89 33 -38 69 -79 80 -90 11 -12 40 -45 65 -75 25 -29 50 -58 56 -64 5 -6
44 -49 84 -96 41 -47 87 -98 102 -115 14 -16 35 -39 45 -51 188 -218 359 -408
369 -411 22 -7 22 24 1 49 -12 14 -85 104 -162 199 -77 95 -147 180 -155 189
-8 8 -27 32 -42 52 -15 20 -34 42 -41 50 -7 7 -58 69 -114 138 -55 69 -143
177 -194 240 -94 116 -134 160 -147 160 -4 0 -15 -5 -24 -11z"/>
<path d="M3536 3856 c-17 -18 -83 -97 -147 -177 -64 -79 -161 -199 -215 -265
-366 -450 -459 -568 -462 -585 -6 -35 24 -20 69 33 24 28 49 56 54 62 6 6 51
58 100 116 50 58 95 110 100 116 60 67 89 100 145 164 36 41 67 77 70 80 3 3
32 37 65 75 33 39 64 75 70 81 5 6 33 37 60 69 28 32 55 63 60 69 91 100 117
137 111 159 -10 40 -45 41 -80 3z"/>
<path d="M511 3598 c-6 -15 -5 -29 2 -40 7 -9 110 -96 230 -193 120 -97 226
-183 235 -190 10 -8 60 -49 112 -91 105 -85 168 -136 214 -175 144 -120 238
-190 251 -185 22 8 19 19 -12 46 -43 36 -167 144 -173 150 -3 3 -39 34 -80 70
-41 36 -80 70 -86 75 -6 6 -26 23 -45 39 -19 16 -52 45 -74 65 -22 20 -69 61
-104 91 -36 30 -69 60 -75 65 -6 6 -42 37 -81 70 -38 33 -74 65 -80 71 -5 5
-44 39 -85 75 -41 35 -76 67 -78 72 -2 4 -17 7 -33 7 -21 0 -32 -6 -38 -22z"/>
<path d="M3789 3587 c-45 -41 -70 -63 -259 -227 -85 -74 -171 -149 -190 -166
-19 -17 -96 -84 -170 -149 -363 -316 -359 -312 -338 -320 18 -7 43 10 164 110
33 27 78 64 100 82 133 107 553 448 574 466 14 12 66 55 117 95 94 75 114 102
93 127 -20 24 -52 17 -91 -18z"/>
<path d="M307 3308 c-26 -14 -21 -54 11 -76 15 -11 241 -137 502 -282 261
-144 503 -278 538 -297 35 -20 69 -32 78 -29 23 9 6 26 -64 69 -31 18 -190
114 -352 212 -162 98 -307 185 -322 194 -15 9 -97 59 -184 111 -182 110 -185
111 -207 98z"/>
<path d="M3505 2989 c-303 -182 -553 -336 -557 -342 -10 -17 2 -28 23 -22 10
4 74 37 141 74 207 115 589 326 668 369 320 174 348 195 313 234 -9 10 -21 18
-27 18 -7 0 -259 -149 -561 -331z"/>
<path d="M151 2964 c-24 -17 -27 -46 -7 -63 12 -10 282 -104 914 -318 122 -41
229 -73 237 -69 33 12 -4 34 -163 95 -202 77 -611 234 -782 301 -69 27 -137
53 -151 59 -20 7 -32 6 -48 -5z"/>
<path d="M4195 2967 c-16 -5 -138 -51 -270 -102 -132 -51 -373 -144 -535 -206
-162 -62 -298 -118 -302 -123 -14 -20 12 -36 40 -24 15 5 158 54 317 109 625
212 788 269 801 280 19 16 18 43 -3 61 -14 12 -25 13 -48 5z"/>
<path d="M4200 2594 c-58 -13 -119 -25 -136 -28 -49 -8 -497 -96 -514 -101 -8
-2 -35 -7 -60 -10 -25 -3 -53 -8 -62 -11 -17 -5 -44 -11 -93 -20 -16 -3 -48
-9 -70 -14 -22 -5 -55 -11 -72 -14 -18 -4 -48 -8 -65 -12 -35 -5 -53 -23 -39
-37 7 -7 138 8 241 28 9 2 41 6 71 10 30 4 90 13 134 20 44 8 98 17 120 19 22
3 49 8 61 10 12 2 45 7 75 11 30 4 56 8 59 10 3 2 30 6 60 10 127 15 426 68
438 77 6 6 12 21 12 34 0 44 -26 47 -160 18z"/>
<path d="M40 2590 c-11 -20 1 -60 18 -60 4 0 75 -12 157 -25 83 -14 168 -28
190 -31 22 -2 51 -7 65 -9 117 -20 312 -51 375 -60 28 -3 57 -8 65 -10 8 -2
35 -7 60 -10 25 -4 107 -17 183 -29 106 -17 140 -20 147 -11 18 21 -9 31 -165
60 -82 16 -154 30 -160 31 -5 1 -59 12 -120 24 -60 12 -186 36 -280 55 -337
67 -487 95 -505 95 -11 0 -24 -9 -30 -20z"/>
<path d="M12 2228 c-16 -16 -15 -43 2 -61 11 -11 38 -14 113 -12 54 2 253 6
443 10 190 4 408 8 485 10 77 2 164 4 193 4 45 1 52 4 52 21 0 19 -7 20 -92
21 -51 0 -163 2 -248 4 -601 13 -936 15 -948 3z"/>
<path d="M3866 2233 c-1 -2 -155 -6 -342 -9 -186 -4 -358 -7 -381 -8 -47 -2
-74 -18 -51 -32 14 -9 29 -10 608 -19 223 -4 463 -8 533 -9 130 -3 157 4 157
37 -1 41 -10 42 -270 42 -139 0 -253 -1 -254 -2z"/>
<path d="M1239 2050 c-15 -4 -49 -10 -75 -14 -27 -3 -76 -10 -109 -16 -33 -6
-76 -13 -95 -16 -50 -7 -278 -42 -320 -48 -19 -3 -109 -17 -200 -31 -91 -14
-176 -28 -190 -30 -14 -3 -63 -10 -108 -17 -105 -14 -137 -42 -96 -82 20 -21
22 -21 172 10 70 14 138 28 152 30 14 3 210 41 435 86 226 44 426 82 445 85
35 5 69 27 58 38 -10 10 -43 12 -69 5z"/>
<path d="M3098 2052 c-42 -9 -6 -38 59 -48 21 -3 45 -7 53 -9 8 -2 31 -7 50
-10 19 -3 54 -10 78 -16 23 -5 59 -12 80 -15 20 -3 64 -12 97 -19 33 -8 76
-16 95 -19 19 -3 67 -12 105 -20 39 -8 82 -17 95 -19 14 -3 132 -26 264 -52
131 -25 244 -44 252 -41 7 3 18 14 24 25 8 16 7 24 -8 39 -17 17 -65 28 -207
47 -22 3 -62 10 -90 15 -27 5 -70 12 -95 15 -25 2 -112 16 -195 29 -82 14
-168 27 -190 31 -22 3 -67 10 -100 15 -33 5 -78 12 -100 15 -22 3 -51 8 -65
10 -14 2 -45 7 -70 10 -25 4 -61 10 -80 14 -19 4 -43 5 -52 3z"/>
<path d="M1195 1859 c-105 -37 -523 -181 -800 -276 -121 -41 -230 -81 -243
-89 -37 -24 -23 -74 22 -74 11 0 108 34 215 76 108 43 270 106 361 141 91 36
176 69 190 73 74 25 353 139 362 148 12 12 2 33 -15 31 -7 -1 -48 -14 -92 -30z"/>
<path d="M3093 1882 c-7 -4 -9 -13 -4 -20 8 -14 1102 -442 1129 -442 43 0 58
59 20 78 -13 6 -44 18 -69 26 -42 14 -665 228 -948 326 -62 22 -114 40 -115
40 0 0 -6 -4 -13 -8z"/>
<path d="M885 1473 c-214 -118 -428 -235 -475 -260 -106 -57 -120 -69 -120
-104 0 -62 20 -52 458 212 229 138 448 270 485 293 61 37 82 65 52 72 -5 1
-185 -95 -400 -213z"/>
<path d="M3082 1673 c4 -19 950 -593 978 -593 28 0 45 36 28 62 -12 17 -128
84 -403 233 -44 23 -145 78 -225 122 -80 44 -181 99 -225 123 -44 23 -89 49
-100 56 -28 20 -57 18 -53 -3z"/>
<path d="M1189 1384 c-52 -41 -103 -83 -114 -92 -11 -9 -141 -113 -288 -231
-147 -117 -272 -222 -278 -232 -13 -26 5 -59 34 -59 12 0 40 17 62 36 68 62
113 101 413 368 161 142 292 262 292 266 0 27 -39 9 -121 -56z"/>
<path d="M1500 1398 c-30 -35 -61 -70 -69 -79 -9 -9 -27 -29 -41 -45 -36 -42
-313 -357 -325 -370 -5 -6 -35 -40 -65 -74 -30 -35 -64 -73 -75 -86 -11 -12
-42 -48 -70 -80 -27 -32 -58 -66 -67 -76 -36 -37 -11 -96 34 -79 10 3 41 36
70 71 29 36 98 122 153 190 55 69 102 127 105 130 6 6 195 237 285 350 33 41
62 77 65 80 35 35 81 104 76 115 -9 25 -21 18 -76 -47z"/>
<path d="M1725 1420 c-154 -244 -645 -1073 -645 -1089 0 -13 10 -26 25 -33 31
-14 45 -3 84 66 23 42 239 433 326 591 12 22 77 140 144 263 67 122 119 227
116 232 -11 18 -25 10 -50 -30z"/>
<path d="M1893 1423 c-8 -21 -59 -153 -113 -293 -54 -140 -157 -410 -229 -598
-73 -189 -131 -353 -129 -365 4 -25 52 -41 68 -22 6 7 48 122 94 256 47 134
121 350 166 479 163 473 190 555 186 567 -9 24 -27 13 -43 -24z"/>
<path d="M2047 1453 c-3 -6 -18 -74 -18 -85 0 -2 -4 -21 -9 -43 -6 -22 -12
-56 -16 -75 -3 -19 -23 -125 -44 -235 -22 -110 -41 -211 -43 -225 -3 -14 -19
-95 -35 -180 -86 -440 -102 -533 -97 -551 4 -13 15 -19 34 -19 40 0 50 31 76
235 2 11 10 63 19 115 8 52 18 111 20 130 3 19 19 116 35 215 16 99 44 268 61
375 18 107 33 202 35 210 1 8 6 43 10 78 6 52 5 62 -8 62 -9 0 -18 -3 -20 -7z"/>
<path d="M2176 1452 c-4 -7 -11 -365 -21 -1124 -4 -295 -4 -298 18 -313 18
-13 24 -13 42 -1 23 16 23 25 11 706 -13 682 -14 719 -21 730 -7 12 -22 13
-29 2z"/>
<path d="M2313 1403 c4 -32 9 -69 11 -83 6 -31 50 -302 71 -435 19 -118 19
-123 39 -240 9 -49 18 -108 21 -130 3 -22 15 -96 26 -165 11 -69 22 -141 25
-160 19 -132 35 -165 74 -152 32 11 34 48 10 142 -5 19 -12 51 -15 70 -3 19
-26 139 -51 265 -25 127 -47 241 -49 255 -1 14 -21 117 -43 230 -23 113 -48
243 -56 290 -31 164 -32 170 -53 170 -13 0 -15 -9 -10 -57z"/>
<path d="M2456 1451 c-7 -11 -4 -20 109 -346 42 -121 133 -384 202 -585 69
-201 133 -371 142 -378 20 -16 40 -12 57 13 11 18 6 37 -41 160 -29 77 -137
358 -239 625 -102 267 -190 491 -194 499 -11 19 -29 25 -36 12z"/>
<path d="M2624 1436 c3 -14 52 -108 107 -208 56 -101 114 -205 129 -233 43
-78 178 -323 210 -380 9 -16 52 -94 94 -172 75 -138 95 -160 129 -147 45 17
35 36 -306 603 -205 341 -342 557 -352 559 -14 3 -16 -1 -11 -22z"/>
<path d="M2815 1450 c-7 -11 8 -38 41 -76 11 -12 33 -39 49 -60 17 -21 53 -66
80 -100 28 -34 64 -78 80 -99 17 -21 35 -43 40 -49 6 -6 108 -134 229 -284
120 -149 221 -272 225 -273 3 0 14 -2 24 -4 9 -2 24 6 32 18 13 19 13 24 -2
46 -9 15 -22 31 -28 37 -6 6 -35 39 -65 74 -30 34 -60 68 -65 74 -6 6 -42 47
-80 91 -39 44 -72 82 -75 85 -3 3 -34 39 -70 80 -36 41 -67 77 -70 80 -3 3
-36 41 -75 85 -38 44 -75 85 -81 92 -6 6 -46 52 -89 102 -44 50 -82 91 -86 91
-4 0 -11 -5 -14 -10z"/>
<path d="M3093 1453 c-7 -3 -13 -8 -13 -13 0 -4 55 -56 123 -116 67 -60 124
-111 127 -114 3 -3 79 -70 170 -150 91 -79 202 -177 247 -217 81 -72 97 -80
119 -65 15 10 25 45 16 58 -4 6 -74 64 -157 130 -82 65 -152 121 -155 124 -3
3 -36 30 -75 60 -81 63 -103 81 -119 95 -24 22 -252 201 -261 207 -5 3 -16 3
-22 1z"/>
</g>
</svg>
